<mxfile host="app.diagrams.net" modified="2020-10-21T17:21:35.427Z" agent="5.0 (Windows NT 10.0; Win64; x64) AppleWebKit/537.36 (KHTML, like Gecko) Chrome/86.0.4240.75 Safari/537.36" etag="h80JEH4RpmG3gPjcMlfh" version="13.7.3" type="github" pages="2">
  <diagram id="wFE0QG_FPsp0jaGvCLVb" name="Page-1">
    <mxGraphModel dx="852" dy="376" grid="1" gridSize="10" guides="1" tooltips="1" connect="1" arrows="1" fold="1" page="1" pageScale="1" pageWidth="850" pageHeight="1100" math="0" shadow="0">
      <root>
        <mxCell id="0" />
        <mxCell id="1" parent="0" />
        <mxCell id="_5mSTuPxr-ZiKRkBDSY7-1" value="" style="swimlane;fontStyle=2;childLayout=stackLayout;horizontal=1;startSize=28;horizontalStack=1;resizeParent=1;resizeParentMax=0;resizeLast=0;collapsible=0;marginBottom=0;swimlaneFillColor=none;fontFamily=Permanent Marker;fontSize=16;points=[];verticalAlign=top;stackBorder=0;resizable=1;strokeWidth=2;sketch=1;disableMultiStroke=1;" parent="1" vertex="1">
          <mxGeometry x="160" y="80" width="720" height="440" as="geometry" />
        </mxCell>
        <object label="TO DO" status="New" id="_5mSTuPxr-ZiKRkBDSY7-2">
          <mxCell style="swimlane;strokeWidth=2;fontFamily=Permanent Marker;html=0;startSize=1;verticalAlign=bottom;spacingBottom=5;points=[];childLayout=stackLayout;stackBorder=20;stackSpacing=20;resizeLast=0;resizeParent=1;horizontalStack=0;collapsible=0;sketch=1;strokeColor=none;fillStyle=solid;fillColor=#A0522D;" parent="_5mSTuPxr-ZiKRkBDSY7-1" vertex="1">
            <mxGeometry y="28" width="180" height="412" as="geometry" />
          </mxCell>
        </object>
        <object label="Task 2&lt;br&gt;&lt;span style=&quot;font-weight: normal&quot;&gt;&lt;i&gt;&lt;font style=&quot;font-size: 10px&quot;&gt;%status%&lt;/font&gt;&lt;/i&gt;&lt;/span&gt;" placeholders="1" id="_5mSTuPxr-ZiKRkBDSY7-4">
          <mxCell style="whiteSpace=wrap;html=1;strokeWidth=2;fillColor=swimlane;fontStyle=1;spacingTop=0;rounded=1;arcSize=9;points=[];sketch=1;fontFamily=Permanent Marker;hachureGap=8;fillWeight=1;" parent="_5mSTuPxr-ZiKRkBDSY7-2" vertex="1">
            <mxGeometry x="20" y="21" width="140" height="80" as="geometry" />
          </mxCell>
        </object>
        <object label="Task 3&lt;br&gt;&lt;span style=&quot;font-weight: normal&quot;&gt;&lt;i&gt;&lt;font style=&quot;font-size: 10px&quot;&gt;%status%&lt;/font&gt;&lt;/i&gt;&lt;/span&gt;" placeholders="1" id="_5mSTuPxr-ZiKRkBDSY7-5">
          <mxCell style="whiteSpace=wrap;html=1;strokeWidth=2;fillColor=swimlane;fontStyle=1;spacingTop=0;rounded=1;arcSize=9;points=[];sketch=1;fontFamily=Permanent Marker;hachureGap=8;fillWeight=1;" parent="_5mSTuPxr-ZiKRkBDSY7-2" vertex="1">
            <mxGeometry x="20" y="121" width="140" height="80" as="geometry" />
          </mxCell>
        </object>
        <object label="DOING" status="In progress" id="_5mSTuPxr-ZiKRkBDSY7-6">
          <mxCell style="swimlane;strokeWidth=2;fontFamily=Permanent Marker;html=0;startSize=1;verticalAlign=bottom;spacingBottom=5;points=[];childLayout=stackLayout;stackBorder=20;stackSpacing=20;resizeLast=0;resizeParent=1;horizontalStack=0;collapsible=0;sketch=1;strokeColor=none;fillStyle=solid;fillColor=#006600;" parent="_5mSTuPxr-ZiKRkBDSY7-1" vertex="1">
            <mxGeometry x="180" y="28" width="180" height="412" as="geometry" />
          </mxCell>
        </object>
        <object label="Task 4&lt;br&gt;&lt;span style=&quot;font-weight: normal&quot;&gt;&lt;i&gt;&lt;font style=&quot;font-size: 10px&quot;&gt;%status%&lt;/font&gt;&lt;/i&gt;&lt;/span&gt;" placeholders="1" id="_5mSTuPxr-ZiKRkBDSY7-7">
          <mxCell style="whiteSpace=wrap;html=1;strokeWidth=2;fillColor=swimlane;fontStyle=1;spacingTop=0;rounded=1;arcSize=9;points=[];sketch=1;fontFamily=Permanent Marker;hachureGap=8;fillWeight=1;" parent="_5mSTuPxr-ZiKRkBDSY7-6" vertex="1">
            <mxGeometry x="20" y="21" width="140" height="80" as="geometry" />
          </mxCell>
        </object>
        <object label="Task 5&lt;br&gt;&lt;span style=&quot;font-weight: normal&quot;&gt;&lt;i&gt;&lt;font style=&quot;font-size: 10px&quot;&gt;%status%&lt;/font&gt;&lt;/i&gt;&lt;/span&gt;" placeholders="1" id="_5mSTuPxr-ZiKRkBDSY7-8">
          <mxCell style="whiteSpace=wrap;html=1;strokeWidth=2;fillColor=swimlane;fontStyle=1;spacingTop=0;rounded=1;arcSize=9;points=[];sketch=1;fontFamily=Permanent Marker;hachureGap=8;fillWeight=1;" parent="_5mSTuPxr-ZiKRkBDSY7-6" vertex="1">
            <mxGeometry x="20" y="121" width="140" height="80" as="geometry" />
          </mxCell>
        </object>
        <object label="DOING" status="In progress" id="PYUHkn0j5F1dLXRxDatt-1">
          <mxCell style="swimlane;strokeWidth=2;fontFamily=Permanent Marker;html=0;startSize=1;verticalAlign=bottom;spacingBottom=5;points=[];childLayout=stackLayout;stackBorder=20;stackSpacing=20;resizeLast=0;resizeParent=1;horizontalStack=0;collapsible=0;sketch=1;strokeColor=none;fillStyle=solid;fillColor=#006600;" vertex="1" parent="_5mSTuPxr-ZiKRkBDSY7-1">
            <mxGeometry x="360" y="28" width="180" height="412" as="geometry" />
          </mxCell>
        </object>
        <object label="Task 4&lt;br&gt;&lt;span style=&quot;font-weight: normal&quot;&gt;&lt;i&gt;&lt;font style=&quot;font-size: 10px&quot;&gt;%status%&lt;/font&gt;&lt;/i&gt;&lt;/span&gt;" placeholders="1" id="PYUHkn0j5F1dLXRxDatt-2">
          <mxCell style="whiteSpace=wrap;html=1;strokeWidth=2;fillColor=swimlane;fontStyle=1;spacingTop=0;rounded=1;arcSize=9;points=[];sketch=1;fontFamily=Permanent Marker;hachureGap=8;fillWeight=1;" vertex="1" parent="PYUHkn0j5F1dLXRxDatt-1">
            <mxGeometry x="20" y="21" width="140" height="80" as="geometry" />
          </mxCell>
        </object>
        <object label="Task 5&lt;br&gt;&lt;span style=&quot;font-weight: normal&quot;&gt;&lt;i&gt;&lt;font style=&quot;font-size: 10px&quot;&gt;%status%&lt;/font&gt;&lt;/i&gt;&lt;/span&gt;" placeholders="1" id="PYUHkn0j5F1dLXRxDatt-3">
          <mxCell style="whiteSpace=wrap;html=1;strokeWidth=2;fillColor=swimlane;fontStyle=1;spacingTop=0;rounded=1;arcSize=9;points=[];sketch=1;fontFamily=Permanent Marker;hachureGap=8;fillWeight=1;" vertex="1" parent="PYUHkn0j5F1dLXRxDatt-1">
            <mxGeometry x="20" y="121" width="140" height="80" as="geometry" />
          </mxCell>
        </object>
        <object label="DONE" status="Completed" id="_5mSTuPxr-ZiKRkBDSY7-9">
          <mxCell style="swimlane;strokeWidth=2;fontFamily=Permanent Marker;html=0;startSize=1;verticalAlign=bottom;spacingBottom=5;points=[];childLayout=stackLayout;stackBorder=20;stackSpacing=20;resizeLast=0;resizeParent=1;horizontalStack=0;collapsible=0;sketch=1;strokeColor=none;fillStyle=solid;fillColor=#1BA1E2;" parent="_5mSTuPxr-ZiKRkBDSY7-1" vertex="1">
            <mxGeometry x="540" y="28" width="180" height="412" as="geometry" />
          </mxCell>
        </object>
        <object label="Task 6&lt;br&gt;&lt;span style=&quot;font-weight: normal&quot;&gt;&lt;i&gt;&lt;font style=&quot;font-size: 10px&quot;&gt;%status%&lt;/font&gt;&lt;/i&gt;&lt;/span&gt;" placeholders="1" id="_5mSTuPxr-ZiKRkBDSY7-10">
          <mxCell style="whiteSpace=wrap;html=1;strokeWidth=2;fillColor=swimlane;fontStyle=1;spacingTop=0;rounded=1;arcSize=9;points=[];sketch=1;fontFamily=Permanent Marker;hachureGap=8;fillWeight=1;" parent="_5mSTuPxr-ZiKRkBDSY7-9" vertex="1">
            <mxGeometry x="20" y="21" width="140" height="80" as="geometry" />
          </mxCell>
        </object>
        <object label="Task 7&lt;br&gt;&lt;span style=&quot;font-weight: normal&quot;&gt;&lt;i&gt;&lt;font style=&quot;font-size: 10px&quot;&gt;%status%&lt;/font&gt;&lt;/i&gt;&lt;/span&gt;" placeholders="1" id="_5mSTuPxr-ZiKRkBDSY7-11">
          <mxCell style="whiteSpace=wrap;html=1;strokeWidth=2;fillColor=swimlane;fontStyle=1;spacingTop=0;rounded=1;arcSize=9;points=[];sketch=1;fontFamily=Permanent Marker;hachureGap=8;fillWeight=1;" parent="_5mSTuPxr-ZiKRkBDSY7-9" vertex="1">
            <mxGeometry x="20" y="121" width="140" height="80" as="geometry" />
          </mxCell>
        </object>
        <object label="Task 8&lt;br&gt;&lt;span style=&quot;font-weight: normal&quot;&gt;&lt;i&gt;&lt;font style=&quot;font-size: 10px&quot;&gt;%status%&lt;/font&gt;&lt;/i&gt;&lt;/span&gt;" placeholders="1" id="_5mSTuPxr-ZiKRkBDSY7-12">
          <mxCell style="whiteSpace=wrap;html=1;strokeWidth=2;fillColor=swimlane;fontStyle=1;spacingTop=0;rounded=1;arcSize=9;points=[];sketch=1;fontFamily=Permanent Marker;hachureGap=8;fillWeight=1;" parent="_5mSTuPxr-ZiKRkBDSY7-9" vertex="1">
            <mxGeometry x="20" y="221" width="140" height="80" as="geometry" />
          </mxCell>
        </object>
      </root>
    </mxGraphModel>
  </diagram>
  <diagram id="hqx24AX21VE7nAcTiJH1" name="Page-2">
    <mxGraphModel dx="852" dy="433" grid="1" gridSize="10" guides="1" tooltips="1" connect="1" arrows="1" fold="1" page="1" pageScale="1" pageWidth="827" pageHeight="1169" background="#FFCCE6" math="0" shadow="1">
      <root>
        <mxCell id="81sEBmdkH2DmNocHoFiU-0" />
        <mxCell id="81sEBmdkH2DmNocHoFiU-1" parent="81sEBmdkH2DmNocHoFiU-0" />
        <mxCell id="81sEBmdkH2DmNocHoFiU-2" value="" style="rounded=1;whiteSpace=wrap;html=1;fillColor=#ffe6cc;strokeColor=#d79b00;" vertex="1" parent="81sEBmdkH2DmNocHoFiU-1">
          <mxGeometry x="19" y="10" width="790" height="110" as="geometry" />
        </mxCell>
        <mxCell id="81sEBmdkH2DmNocHoFiU-4" value="" style="rounded=1;whiteSpace=wrap;html=1;fillColor=#f8cecc;strokeColor=#b85450;" vertex="1" parent="81sEBmdkH2DmNocHoFiU-1">
          <mxGeometry x="50" y="160" width="350" height="150" as="geometry" />
        </mxCell>
        <mxCell id="81sEBmdkH2DmNocHoFiU-5" value="" style="rounded=1;whiteSpace=wrap;html=1;fillColor=#fff2cc;strokeColor=#d6b656;" vertex="1" parent="81sEBmdkH2DmNocHoFiU-1">
          <mxGeometry x="440" y="160" width="360" height="150" as="geometry" />
        </mxCell>
        <mxCell id="81sEBmdkH2DmNocHoFiU-9" value="" style="rounded=0;whiteSpace=wrap;html=1;fillColor=#dae8fc;strokeColor=#6c8ebf;" vertex="1" parent="81sEBmdkH2DmNocHoFiU-1">
          <mxGeometry x="50" y="340" width="750" height="150" as="geometry" />
        </mxCell>
        <mxCell id="81sEBmdkH2DmNocHoFiU-10" value="SDN Controller" style="rounded=0;whiteSpace=wrap;html=1;fontStyle=1;fontSize=16;fillColor=#d5e8d4;strokeColor=#82b366;" vertex="1" parent="81sEBmdkH2DmNocHoFiU-1">
          <mxGeometry x="360" y="310" width="120" height="30" as="geometry" />
        </mxCell>
        <mxCell id="81sEBmdkH2DmNocHoFiU-12" value="" style="shape=note;whiteSpace=wrap;html=1;backgroundOutline=1;darkOpacity=0.05;fillColor=#60a917;strokeColor=#2D7600;fontColor=#ffffff;" vertex="1" parent="81sEBmdkH2DmNocHoFiU-1">
          <mxGeometry x="667.5" y="15" width="110" height="100" as="geometry" />
        </mxCell>
        <mxCell id="81sEBmdkH2DmNocHoFiU-70" style="edgeStyle=none;rounded=0;orthogonalLoop=1;jettySize=auto;html=1;exitX=1;exitY=0.5;exitDx=0;exitDy=0;entryX=0;entryY=0.5;entryDx=0;entryDy=0;fontSize=14;" edge="1" parent="81sEBmdkH2DmNocHoFiU-1" source="81sEBmdkH2DmNocHoFiU-16" target="81sEBmdkH2DmNocHoFiU-18">
          <mxGeometry relative="1" as="geometry" />
        </mxCell>
        <mxCell id="81sEBmdkH2DmNocHoFiU-16" value="" style="rounded=1;whiteSpace=wrap;html=1;" vertex="1" parent="81sEBmdkH2DmNocHoFiU-1">
          <mxGeometry x="70" y="30" width="120" height="30" as="geometry" />
        </mxCell>
        <mxCell id="81sEBmdkH2DmNocHoFiU-17" value="" style="rounded=1;whiteSpace=wrap;html=1;" vertex="1" parent="81sEBmdkH2DmNocHoFiU-1">
          <mxGeometry x="70" y="70" width="120" height="30" as="geometry" />
        </mxCell>
        <mxCell id="81sEBmdkH2DmNocHoFiU-73" style="edgeStyle=orthogonalEdgeStyle;curved=1;rounded=0;orthogonalLoop=1;jettySize=auto;html=1;exitX=1;exitY=0.5;exitDx=0;exitDy=0;entryX=0.025;entryY=0.35;entryDx=0;entryDy=0;entryPerimeter=0;fontSize=14;" edge="1" parent="81sEBmdkH2DmNocHoFiU-1" source="81sEBmdkH2DmNocHoFiU-18" target="81sEBmdkH2DmNocHoFiU-20">
          <mxGeometry relative="1" as="geometry" />
        </mxCell>
        <mxCell id="81sEBmdkH2DmNocHoFiU-18" value="" style="rounded=1;whiteSpace=wrap;html=1;" vertex="1" parent="81sEBmdkH2DmNocHoFiU-1">
          <mxGeometry x="280" y="30" width="120" height="30" as="geometry" />
        </mxCell>
        <mxCell id="81sEBmdkH2DmNocHoFiU-74" style="edgeStyle=orthogonalEdgeStyle;curved=1;rounded=0;orthogonalLoop=1;jettySize=auto;html=1;exitX=1;exitY=0.5;exitDx=0;exitDy=0;entryX=0.025;entryY=0.65;entryDx=0;entryDy=0;entryPerimeter=0;fontSize=14;" edge="1" parent="81sEBmdkH2DmNocHoFiU-1" source="81sEBmdkH2DmNocHoFiU-19" target="81sEBmdkH2DmNocHoFiU-20">
          <mxGeometry relative="1" as="geometry" />
        </mxCell>
        <mxCell id="81sEBmdkH2DmNocHoFiU-19" value="" style="rounded=1;whiteSpace=wrap;html=1;" vertex="1" parent="81sEBmdkH2DmNocHoFiU-1">
          <mxGeometry x="280" y="70" width="120" height="30" as="geometry" />
        </mxCell>
        <mxCell id="81sEBmdkH2DmNocHoFiU-20" value="" style="ellipse;whiteSpace=wrap;html=1;aspect=fixed;fillColor=#a20025;strokeColor=#6F0000;fontColor=#ffffff;" vertex="1" parent="81sEBmdkH2DmNocHoFiU-1">
          <mxGeometry x="470" y="25" width="80" height="80" as="geometry" />
        </mxCell>
        <mxCell id="81sEBmdkH2DmNocHoFiU-25" value="Management and Orchestration" style="text;html=1;align=center;verticalAlign=middle;whiteSpace=wrap;rounded=0;fontSize=16;fontStyle=1;fillColor=#d5e8d4;strokeColor=#82b366;" vertex="1" parent="81sEBmdkH2DmNocHoFiU-1">
          <mxGeometry x="280" y="130" width="270" height="30" as="geometry" />
        </mxCell>
        <mxCell id="81sEBmdkH2DmNocHoFiU-33" value="Data and Control Plane" style="text;html=1;strokeColor=#82b366;fillColor=#d5e8d4;align=center;verticalAlign=middle;whiteSpace=wrap;rounded=0;fontSize=16;rotation=-90;fontStyle=1" vertex="1" parent="81sEBmdkH2DmNocHoFiU-1">
          <mxGeometry x="-65.47" y="303.91" width="199" height="32.19" as="geometry" />
        </mxCell>
        <mxCell id="81sEBmdkH2DmNocHoFiU-36" value="" style="html=1;shadow=0;dashed=0;align=center;verticalAlign=middle;shape=mxgraph.arrows2.arrow;dy=0.67;dx=20;notch=0;fontSize=16;fillColor=#76608a;strokeColor=#432D57;fontColor=#ffffff;" vertex="1" parent="81sEBmdkH2DmNocHoFiU-1">
          <mxGeometry x="550" y="58" width="117.5" height="20" as="geometry" />
        </mxCell>
        <mxCell id="81sEBmdkH2DmNocHoFiU-37" value="" style="html=1;shadow=0;dashed=0;align=center;verticalAlign=middle;shape=mxgraph.arrows2.arrow;dy=0.67;dx=20;notch=0;fontSize=16;fillColor=#76608a;strokeColor=#432D57;fontColor=#ffffff;rotation=90;" vertex="1" parent="81sEBmdkH2DmNocHoFiU-1">
          <mxGeometry x="667.5" y="142.5" width="75" height="20" as="geometry" />
        </mxCell>
        <mxCell id="81sEBmdkH2DmNocHoFiU-43" value="" style="html=1;shadow=0;dashed=0;align=center;verticalAlign=middle;shape=mxgraph.arrows2.arrow;dy=0.67;dx=20;notch=0;fontSize=16;fillColor=#76608a;strokeColor=#432D57;fontColor=#ffffff;rotation=-180;" vertex="1" parent="81sEBmdkH2DmNocHoFiU-1">
          <mxGeometry x="400" y="190" width="40" height="10" as="geometry" />
        </mxCell>
        <mxCell id="81sEBmdkH2DmNocHoFiU-44" value="" style="html=1;shadow=0;dashed=0;align=center;verticalAlign=middle;shape=mxgraph.arrows2.arrow;dy=0.67;dx=20;notch=0;fontSize=16;fillColor=#76608a;strokeColor=#432D57;fontColor=#ffffff;rotation=0;" vertex="1" parent="81sEBmdkH2DmNocHoFiU-1">
          <mxGeometry x="400" y="275" width="40" height="10" as="geometry" />
        </mxCell>
        <mxCell id="81sEBmdkH2DmNocHoFiU-50" value="Extended-YAML" style="text;html=1;strokeColor=none;fillColor=none;align=center;verticalAlign=middle;whiteSpace=wrap;rounded=0;fontSize=10;fontStyle=1" vertex="1" parent="81sEBmdkH2DmNocHoFiU-1">
          <mxGeometry x="560" y="40" width="80" height="20" as="geometry" />
        </mxCell>
        <mxCell id="81sEBmdkH2DmNocHoFiU-51" value="Slice&amp;nbsp; Templ" style="text;html=1;strokeColor=none;fillColor=none;align=center;verticalAlign=middle;whiteSpace=wrap;rounded=0;fontSize=10;fontStyle=1" vertex="1" parent="81sEBmdkH2DmNocHoFiU-1">
          <mxGeometry x="667.5" y="20" width="72.5" height="10" as="geometry" />
        </mxCell>
        <mxCell id="81sEBmdkH2DmNocHoFiU-55" value="YAML Temp" style="text;html=1;strokeColor=none;fillColor=none;align=center;verticalAlign=middle;whiteSpace=wrap;rounded=0;fontSize=10;fontStyle=1" vertex="1" parent="81sEBmdkH2DmNocHoFiU-1">
          <mxGeometry x="660" y="30" width="90" height="10" as="geometry" />
        </mxCell>
        <mxCell id="81sEBmdkH2DmNocHoFiU-56" value="NSD" style="text;html=1;strokeColor=none;fillColor=none;align=center;verticalAlign=middle;whiteSpace=wrap;rounded=0;fontSize=10;fontStyle=1" vertex="1" parent="81sEBmdkH2DmNocHoFiU-1">
          <mxGeometry x="667.5" y="45" width="72.5" height="10" as="geometry" />
        </mxCell>
        <mxCell id="81sEBmdkH2DmNocHoFiU-57" value="Slice&amp;nbsp; Properties" style="text;html=1;strokeColor=none;fillColor=none;align=center;verticalAlign=middle;whiteSpace=wrap;rounded=0;fontSize=10;fontStyle=1" vertex="1" parent="81sEBmdkH2DmNocHoFiU-1">
          <mxGeometry x="677.5" y="60" width="82.5" height="13" as="geometry" />
        </mxCell>
        <mxCell id="81sEBmdkH2DmNocHoFiU-58" value="Key Requirements" style="text;html=1;strokeColor=none;fillColor=none;align=center;verticalAlign=middle;whiteSpace=wrap;rounded=0;fontSize=10;fontStyle=1" vertex="1" parent="81sEBmdkH2DmNocHoFiU-1">
          <mxGeometry x="670" y="78" width="100" height="10" as="geometry" />
        </mxCell>
        <mxCell id="81sEBmdkH2DmNocHoFiU-59" value="etc" style="text;html=1;strokeColor=none;fillColor=none;align=center;verticalAlign=middle;whiteSpace=wrap;rounded=0;fontSize=10;fontStyle=1" vertex="1" parent="81sEBmdkH2DmNocHoFiU-1">
          <mxGeometry x="677.5" y="95" width="92.5" height="10" as="geometry" />
        </mxCell>
        <mxCell id="81sEBmdkH2DmNocHoFiU-62" value="Service 1" style="text;html=1;strokeColor=none;fillColor=none;align=center;verticalAlign=middle;whiteSpace=wrap;rounded=0;fontSize=14;" vertex="1" parent="81sEBmdkH2DmNocHoFiU-1">
          <mxGeometry x="80" y="35" width="86.47" height="20" as="geometry" />
        </mxCell>
        <mxCell id="81sEBmdkH2DmNocHoFiU-64" value="Service 3" style="text;html=1;strokeColor=none;fillColor=none;align=center;verticalAlign=middle;whiteSpace=wrap;rounded=0;fontSize=14;" vertex="1" parent="81sEBmdkH2DmNocHoFiU-1">
          <mxGeometry x="86.76" y="75" width="86.47" height="20" as="geometry" />
        </mxCell>
        <mxCell id="81sEBmdkH2DmNocHoFiU-67" value="Service 4" style="text;html=1;strokeColor=none;fillColor=none;align=center;verticalAlign=middle;whiteSpace=wrap;rounded=0;fontSize=14;" vertex="1" parent="81sEBmdkH2DmNocHoFiU-1">
          <mxGeometry x="296.77" y="75" width="86.47" height="20" as="geometry" />
        </mxCell>
        <mxCell id="81sEBmdkH2DmNocHoFiU-68" value="Service 2" style="text;html=1;strokeColor=none;fillColor=none;align=center;verticalAlign=middle;whiteSpace=wrap;rounded=0;fontSize=14;" vertex="1" parent="81sEBmdkH2DmNocHoFiU-1">
          <mxGeometry x="296.77" y="35" width="86.47" height="20" as="geometry" />
        </mxCell>
        <mxCell id="81sEBmdkH2DmNocHoFiU-71" style="edgeStyle=none;rounded=0;orthogonalLoop=1;jettySize=auto;html=1;exitX=1;exitY=0.5;exitDx=0;exitDy=0;entryX=0;entryY=0.5;entryDx=0;entryDy=0;fontSize=14;" edge="1" parent="81sEBmdkH2DmNocHoFiU-1">
          <mxGeometry relative="1" as="geometry">
            <mxPoint x="191" y="85" as="sourcePoint" />
            <mxPoint x="281" y="85" as="targetPoint" />
            <Array as="points" />
          </mxGeometry>
        </mxCell>
        <mxCell id="81sEBmdkH2DmNocHoFiU-75" value="HTC Service Orchestrator&amp;nbsp;" style="text;html=1;strokeColor=none;fillColor=none;align=center;verticalAlign=middle;whiteSpace=wrap;rounded=0;fontSize=14;fontStyle=1" vertex="1" parent="81sEBmdkH2DmNocHoFiU-1">
          <mxGeometry x="500" y="162.5" width="190" height="20" as="geometry" />
        </mxCell>
        <mxCell id="81sEBmdkH2DmNocHoFiU-77" value="HTC Resource Management&amp;nbsp;" style="text;html=1;strokeColor=none;fillColor=none;align=center;verticalAlign=middle;whiteSpace=wrap;rounded=0;fontSize=14;fontStyle=1" vertex="1" parent="81sEBmdkH2DmNocHoFiU-1">
          <mxGeometry x="90" y="163" width="250" height="20" as="geometry" />
        </mxCell>
        <mxCell id="81sEBmdkH2DmNocHoFiU-78" value="Service Plane&lt;br&gt;" style="text;html=1;strokeColor=none;fillColor=none;align=center;verticalAlign=middle;whiteSpace=wrap;rounded=0;fontSize=14;rotation=-90;fontStyle=1" vertex="1" parent="81sEBmdkH2DmNocHoFiU-1">
          <mxGeometry x="-15" y="55" width="111" height="20" as="geometry" />
        </mxCell>
        <mxCell id="81sEBmdkH2DmNocHoFiU-79" value="Session Manager" style="rounded=1;whiteSpace=wrap;html=1;strokeColor=#000000;fontSize=12;fontStyle=1" vertex="1" parent="81sEBmdkH2DmNocHoFiU-1">
          <mxGeometry x="482.5" y="273.90999999999997" width="130" height="30" as="geometry" />
        </mxCell>
        <mxCell id="81sEBmdkH2DmNocHoFiU-80" value="System Monitor" style="rounded=1;whiteSpace=wrap;html=1;strokeColor=#000000;fontSize=13;fontStyle=1" vertex="1" parent="81sEBmdkH2DmNocHoFiU-1">
          <mxGeometry x="647.5" y="273.90999999999997" width="130" height="30" as="geometry" />
        </mxCell>
        <mxCell id="81sEBmdkH2DmNocHoFiU-81" value="Admission/Determinism&amp;nbsp;" style="rounded=1;whiteSpace=wrap;html=1;strokeColor=#000000;fontSize=14;fontStyle=1" vertex="1" parent="81sEBmdkH2DmNocHoFiU-1">
          <mxGeometry x="482.5" y="190" width="287.5" height="30" as="geometry" />
        </mxCell>
        <mxCell id="81sEBmdkH2DmNocHoFiU-82" value="Scheduling/Timing" style="rounded=1;whiteSpace=wrap;html=1;strokeColor=#000000;fontSize=14;fontStyle=1" vertex="1" parent="81sEBmdkH2DmNocHoFiU-1">
          <mxGeometry x="480" y="230" width="290" height="30" as="geometry" />
        </mxCell>
        <mxCell id="81sEBmdkH2DmNocHoFiU-84" value="Scheduling/Timing ?????" style="rounded=1;whiteSpace=wrap;html=1;strokeColor=#000000;fontSize=14;fontStyle=1" vertex="1" parent="81sEBmdkH2DmNocHoFiU-1">
          <mxGeometry x="80" y="190" width="290" height="30" as="geometry" />
        </mxCell>
        <mxCell id="81sEBmdkH2DmNocHoFiU-85" value="Slice Manager&lt;br&gt;&lt;br&gt;Slice Monitor" style="rounded=1;whiteSpace=wrap;html=1;strokeColor=#000000;fontSize=14;verticalAlign=top;fontStyle=1" vertex="1" parent="81sEBmdkH2DmNocHoFiU-1">
          <mxGeometry x="80" y="230" width="130" height="70" as="geometry" />
        </mxCell>
        <mxCell id="81sEBmdkH2DmNocHoFiU-87" value="VNFM&lt;br&gt;&lt;br&gt;NFVO" style="rounded=1;whiteSpace=wrap;html=1;strokeColor=#000000;fontSize=14;verticalAlign=top;fontStyle=1" vertex="1" parent="81sEBmdkH2DmNocHoFiU-1">
          <mxGeometry x="230" y="230" width="130" height="70" as="geometry" />
        </mxCell>
        <mxCell id="81sEBmdkH2DmNocHoFiU-88" value="Resource Layer" style="text;html=1;strokeColor=none;fillColor=none;align=center;verticalAlign=middle;whiteSpace=wrap;rounded=0;fontSize=18;fontStyle=1" vertex="1" parent="81sEBmdkH2DmNocHoFiU-1">
          <mxGeometry x="250" y="340" width="350" height="20" as="geometry" />
        </mxCell>
        <mxCell id="81sEBmdkH2DmNocHoFiU-89" value="CNF/VNF" style="rounded=1;whiteSpace=wrap;html=1;strokeColor=#000000;fontSize=19;" vertex="1" parent="81sEBmdkH2DmNocHoFiU-1">
          <mxGeometry x="86.76" y="360" width="155" height="30" as="geometry" />
        </mxCell>
        <mxCell id="81sEBmdkH2DmNocHoFiU-96" value="" style="shape=link;html=1;fontSize=18;entryX=0.053;entryY=0.56;entryDx=0;entryDy=0;entryPerimeter=0;exitX=0.973;exitY=0.6;exitDx=0;exitDy=0;exitPerimeter=0;" edge="1" parent="81sEBmdkH2DmNocHoFiU-1">
          <mxGeometry width="100" relative="1" as="geometry">
            <mxPoint x="779.75" y="426" as="sourcePoint" />
            <mxPoint x="89.75" y="420" as="targetPoint" />
          </mxGeometry>
        </mxCell>
        <mxCell id="81sEBmdkH2DmNocHoFiU-97" value="CNF/VNF" style="rounded=1;whiteSpace=wrap;html=1;strokeColor=#000000;fontSize=19;" vertex="1" parent="81sEBmdkH2DmNocHoFiU-1">
          <mxGeometry x="360" y="360" width="155" height="30" as="geometry" />
        </mxCell>
        <mxCell id="81sEBmdkH2DmNocHoFiU-98" value="CNF/VNF" style="rounded=1;whiteSpace=wrap;html=1;strokeColor=#000000;fontSize=19;" vertex="1" parent="81sEBmdkH2DmNocHoFiU-1">
          <mxGeometry x="612.5" y="360" width="155" height="30" as="geometry" />
        </mxCell>
        <mxCell id="81sEBmdkH2DmNocHoFiU-99" value="PNF" style="rounded=1;whiteSpace=wrap;html=1;strokeColor=#000000;fontSize=18;" vertex="1" parent="81sEBmdkH2DmNocHoFiU-1">
          <mxGeometry x="86.76" y="440" width="154" height="30" as="geometry" />
        </mxCell>
        <mxCell id="81sEBmdkH2DmNocHoFiU-100" value="PNF" style="rounded=1;whiteSpace=wrap;html=1;strokeColor=#000000;fontSize=18;" vertex="1" parent="81sEBmdkH2DmNocHoFiU-1">
          <mxGeometry x="370" y="440" width="154" height="30" as="geometry" />
        </mxCell>
        <mxCell id="81sEBmdkH2DmNocHoFiU-101" value="PNF" style="rounded=1;whiteSpace=wrap;html=1;strokeColor=#000000;fontSize=18;" vertex="1" parent="81sEBmdkH2DmNocHoFiU-1">
          <mxGeometry x="616" y="440" width="154" height="30" as="geometry" />
        </mxCell>
        <mxCell id="81sEBmdkH2DmNocHoFiU-105" value="" style="html=1;shadow=0;dashed=0;align=center;verticalAlign=middle;shape=mxgraph.arrows2.twoWayArrow;dy=1;dx=10;strokeColor=#6F0000;fontSize=18;rotation=90;fillColor=#a20025;fontColor=#ffffff;" vertex="1" parent="81sEBmdkH2DmNocHoFiU-1">
          <mxGeometry x="132.5" y="315.5" width="30" height="15" as="geometry" />
        </mxCell>
        <mxCell id="81sEBmdkH2DmNocHoFiU-106" value="" style="html=1;shadow=0;dashed=0;align=center;verticalAlign=middle;shape=mxgraph.arrows2.twoWayArrow;dy=1;dx=10;strokeColor=#6F0000;fontSize=18;rotation=90;fillColor=#a20025;fontColor=#ffffff;" vertex="1" parent="81sEBmdkH2DmNocHoFiU-1">
          <mxGeometry x="270.5" y="317.5" width="30" height="15" as="geometry" />
        </mxCell>
        <mxCell id="81sEBmdkH2DmNocHoFiU-107" value="Proposed Architecture of HTC Network Slice System&amp;nbsp;&amp;nbsp;" style="text;html=1;strokeColor=none;fillColor=none;align=center;verticalAlign=middle;whiteSpace=wrap;rounded=0;fontSize=18;fontStyle=1" vertex="1" parent="81sEBmdkH2DmNocHoFiU-1">
          <mxGeometry x="130" y="510" width="550" height="20" as="geometry" />
        </mxCell>
      </root>
    </mxGraphModel>
  </diagram>
</mxfile>
